<?xml version="1.0" encoding="UTF-8"?>
<svg width="100pt" height="100pt" version="1.1" viewBox="0 0 100 100" xmlns="http://www.w3.org/2000/svg">
 <path d="m13.281 44.457v31.008c-2.7734 1.1172-4.3633 4.0469-3.793 6.9844 0.57422 2.9336 3.1445 5.0547 6.1367 5.0508h68.75c2.9922 0.003906 5.5625-2.1172 6.1367-5.0508 0.57031-2.9375-1.0195-5.8672-3.793-6.9844v-31.008c2.9961-2.6367 4.7031-6.4375 4.6875-10.43v-1.9141c0-1.2734-0.34766-2.5234-1.0039-3.6133l-8.0195-13.371c-1.2773-2.1094-3.5625-3.4023-6.0273-3.4102h-52.711c-2.4688 0.007812-4.7539 1.3008-6.0312 3.4141l-8.0156 13.363c-0.65625 1.0938-1.0039 2.3438-1.0039 3.6172v1.9141c-0.015625 3.9922 1.6914 7.793 4.6875 10.43zm45.312 30.543h-17.188v-12.5c0-1.293 1.0508-2.3438 2.3438-2.3438h12.5c1.293 0 2.3438 1.0508 2.3438 2.3438zm7.8125 0v-12.5c-0.007812-5.6055-4.5508-10.148-10.156-10.156h-12.5c-5.6055 0.007812-10.148 4.5508-10.156 10.156v12.5h-12.5v-27.445c3.3398 0.22266 6.6406-0.82813 9.2383-2.9414 0.23828-0.19531 0.46875-0.39844 0.6875-0.60547 2.582 2.457 6.043 3.7695 9.6055 3.6484 3.4023 0.003906 6.6758-1.3047 9.1367-3.6523 5.3906 4.957 13.711 4.8594 18.984-0.22656 0.29297 0.29297 0.60156 0.57031 0.92188 0.83594 2.5977 2.1133 5.8984 3.1641 9.2383 2.9414v27.445zm-50-42.668 7.6797-12.801h51.828l7.6797 12.801v1.6953c0.070312 2.6875-1.7383 5.0625-4.3477 5.707-1.6133 0.33594-3.2891-0.074219-4.5703-1.1133-1.2773-1.0391-2.0195-2.5977-2.0195-4.2461 0-2.1562-1.75-3.9062-3.9062-3.9062s-3.9062 1.75-3.9062 3.9062c-0.003906 3.0195-2.4492 5.4648-5.4688 5.4688-1.5 0.1875-3-0.32812-4.0703-1.3984-1.0703-1.0703-1.5859-2.5703-1.3984-4.0703 0-2.1562-1.75-3.9062-3.9062-3.9062s-3.9062 1.75-3.9062 3.9062c-0.003906 3.0195-2.4492 5.4648-5.4688 5.4688-1.5 0.1875-3-0.32812-4.0703-1.3984-1.0703-1.0703-1.5859-2.5703-1.3984-4.0703 0-2.1562-1.75-3.9062-3.9062-3.9062s-3.9062 1.75-3.9062 3.9062c0 1.6484-0.74219 3.207-2.0195 4.2461-1.2812 1.0391-2.957 1.4492-4.5703 1.1133-2.6094-0.64453-4.418-3.0195-4.3477-5.707z"/>
</svg>
