<?xml version="1.0" encoding="UTF-8"?>
<svg width="100pt" height="100pt" version="1.1" viewBox="0 0 100 100" xmlns="http://www.w3.org/2000/svg">
 <path d="m72.875 59.262c-2.5547-1.25-9.2539 0.38672-19.75 4.7891v-7.8008c5.8008-0.007812 11.359-2.3164 15.461-6.4141 4.0977-4.1016 6.4062-9.6602 6.4141-15.461v-21.875c0-1.3281-0.83594-2.5117-2.0898-2.9492-1.2539-0.44141-2.6484-0.039062-3.4766 0.99609l-9.6875 12.117-7.0625-11.773c-0.60547-0.88281-1.6055-1.4102-2.6758-1.4102-1.0703 0-2.0742 0.52734-2.6797 1.4102l-7.0625 11.773-9.6875-12.117c-0.82812-1.0469-2.2266-1.4531-3.4844-1.0117-1.2617 0.4375-2.1016 1.6289-2.0938 2.9648v21.875c0.007812 5.8008 2.3164 11.359 6.4141 15.461 4.1016 4.0977 9.6602 6.4062 15.461 6.4141v3.9023c-16.066-6.6055-18.648-4.8008-19.906-2.0742-2.1445 4.9531-1.0273 10.711 2.8125 14.504 4.2109 4.6484 10.105 7.4258 16.375 7.7148 0.24609 0 0.47266-0.039063 0.71094-0.046875v7.25c0 1.7266 1.4023 3.125 3.125 3.125 1.7266 0 3.125-1.3984 3.125-3.125v-1.9375c3.2227-0.21484 6.3281-1.2812 9-3.0898 7.5547-4.6445 14.602-13.488 12.785-20.723-0.26953-1.0898-1.0117-2.0039-2.0273-2.4883zm-41.625-24.887v-12.965l6.9336 8.668c0.64453 0.79297 1.6328 1.2266 2.6523 1.1641 1.0195-0.066407 1.9414-0.63281 2.4688-1.5078l6.6953-11.164 6.6953 11.164c0.52734 0.875 1.4492 1.4414 2.4688 1.5078 1.0195 0.0625 2.0078-0.37109 2.6523-1.1641l6.9336-8.668v12.965c-0.003906 4.1406-1.6523 8.1133-4.582 11.043-2.9297 2.9297-6.9023 4.5781-11.043 4.582h-6.25c-4.1406-0.003906-8.1133-1.6523-11.043-4.582-2.9297-2.9297-4.5781-6.9023-4.582-11.043zm3.1992 34.043c-1.7812-1.6562-2.6172-4.0977-2.2227-6.5039 5.0508 1.1328 9.9648 2.8164 14.648 5.0156v7.0977-0.003906c-4.7422-0.058594-9.2422-2.0898-12.426-5.6055zm24.402 8.7266v0.003907c-1.6992 1.1875-3.668 1.9375-5.7266 2.1875v-8.5c5.0859-2.2852 10.344-4.1602 15.727-5.6094-1.7578 5.0664-5.3164 9.3086-10 11.922z"/>
</svg>
