<?xml version="1.0" encoding="UTF-8"?>
<svg width="100pt" height="100pt" version="1.1" viewBox="0 0 100 100" xmlns="http://www.w3.org/2000/svg">
 <g fill-rule="evenodd">
  <path d="m29.984 91.227c-0.36328-0.023437-0.72656-0.046874-1.0898-0.078124-2.0352-0.19141-3.8984-0.85547-5.5547-2.0547-2.8555-2.0703-4.6836-4.8203-5.4102-8.2812-0.27344-1.3008-0.34766-2.6133-0.26563-3.9375 0.09375-1.5547 0.40234-3.0625 0.89844-4.5391 0.78906-2.3555 1.9805-4.4883 3.4844-6.4609 1.1367-1.4844 2.4219-2.8281 3.8359-4.0469 1.3242-1.1406 2.5273-2.4023 3.6562-3.7383 1.418-1.6836 2.6992-3.4688 3.9688-5.2617 1.1211-1.5898 2.2227-3.1875 3.4102-4.7227 0.89453-1.1562 1.8359-2.2734 2.8867-3.293 1.3164-1.2734 2.7656-2.3516 4.4766-3.0508 1.2812-0.52344 2.6172-0.80469 4.0039-0.83203 1.5664-0.035157 3.1172 0.11719 4.6406 0.49219 2.3359 0.57422 4.3555 1.707 6.0977 3.3594 1.1914 1.1367 2.1992 2.418 3.1367 3.7617 0.99219 1.4258 1.9062 2.9023 2.8477 4.3633 1.0625 1.6445 2.1562 3.2617 3.3828 4.793 1.2188 1.5234 2.5664 2.9336 4.0352 4.2188 1.7773 1.5586 3.3555 3.2891 4.6992 5.2344 1.1445 1.668 2.0781 3.4453 2.7305 5.3633 0.50781 1.4922 0.82812 3.0234 0.90625 4.6016 0.125 2.3984-0.28906 4.6914-1.3789 6.8477-1.0078 2-2.4648 3.6055-4.2969 4.8789-1.3477 0.9375-2.7969 1.6484-4.3984 2.0469-0.56641 0.14062-1.1406 0.24219-1.7227 0.30078-0.082032 0.007813-0.16016 0.023438-0.23828 0.035156-0.074218 0.042969-0.16016 0.011719-0.23828 0.019532-0.066406 0.007812-0.13672-0.019532-0.19922 0.019531h-1.4883c-0.058593-0.042969-0.125-0.011719-0.1875-0.019531h-0.17188-0.14453c-1.2695-0.039063-2.5039-0.30469-3.7344-0.58984-2.0859-0.48438-4.1289-1.125-6.1992-1.6523-1.6797-0.42578-3.3711-0.77344-5.0938-0.96875-1.1953-0.13672-2.3906-0.15234-3.5859-0.10938-0.95312 0.03125-1.9023 0.17969-2.8438 0.35547-1.8555 0.34766-3.6719 0.84766-5.4883 1.3438-1.9219 0.52734-3.8477 1.0547-5.8164 1.375-0.80078 0.12891-1.6016 0.23828-2.418 0.23047-0.16797-0.003907-0.33203 0.023437-0.50391 0.019531-0.20312-0.011719-0.41406 0.023438-0.62891-0.023438z"/>
  <path d="m66.723 8.7695c2.6797 0.32031 4.7266 1.6836 6.2891 3.832 1.0703 1.4727 1.7461 3.125 2.1641 4.8906 0.35547 1.5195 0.49219 3.0664 0.44141 4.6289-0.09375 2.8711-0.76953 5.5977-2.0156 8.1836-0.86328 1.793-1.9766 3.4062-3.3984 4.8008-1.2656 1.2383-2.6953 2.2305-4.3672 2.8477-1.1719 0.43359-2.3789 0.64844-3.6289 0.57422-2.1641-0.125-4-0.98438-5.5469-2.4883-1.3164-1.2812-2.2148-2.832-2.8359-4.5469-0.43359-1.1992-0.70312-2.4375-0.84766-3.7031-0.097656-0.86719-0.13672-1.7344-0.10937-2.6016 0.0625-2.0508 0.43359-4.043 1.0977-5.9805 0.70703-2.0625 1.7109-3.9648 3.0781-5.6641 1.1523-1.4297 2.4961-2.6406 4.1094-3.5312 1.1875-0.65625 2.4492-1.082 3.8008-1.2344 0.039063-0.023438 0.085937-0.011719 0.12891-0.015625h0.12891c0.0625-0.007813 0.12891 0.023437 0.18359-0.023438h0.87891c0.058593 0.046875 0.12109 0.015625 0.18359 0.023438h0.12891c0.050781-0.007813 0.09375-0.019531 0.13672 0.007812z"/>
  <path d="m5.082 40.414c0.042969-0.81641 0.1875-1.6211 0.40234-2.4102 0.41406-1.5352 1.0977-2.9336 2.1562-4.1328 1.1875-1.3359 2.6523-2.2031 4.4062-2.5508 1.4258-0.28125 2.832-0.16016 4.2148 0.26563 1.5898 0.49219 2.9961 1.3242 4.2461 2.4141 1.9414 1.6836 3.3359 3.7539 4.2969 6.125 0.50391 1.2422 0.85156 2.5273 1.0469 3.8516 0.09375 0.64453 0.14063 1.2891 0.15234 1.9414 0.023438 1.2344-0.10156 2.4492-0.40625 3.6406-0.40625 1.5938-1.0938 3.043-2.1914 4.2852-1.2578 1.4258-2.8242 2.3086-4.7031 2.6133-1.3789 0.22266-2.7344 0.074219-4.0586-0.35547-1.7812-0.57812-3.3125-1.5742-4.6562-2.8594-1.3125-1.2539-2.3555-2.707-3.168-4.3242-0.79687-1.5859-1.3477-3.2578-1.6133-5.0156-0.046875-0.3125-0.085937-0.62109-0.125-0.93359-0.03125-0.14062-0.019531-0.28516-0.054687-0.42969-0.015625-0.058593-0.007813-0.11328-0.011719-0.17578-0.003906-0.078125 0.03125-0.15625-0.015625-0.23047v-1.1406c0.070312-0.10547 0.035156-0.21875 0.042969-0.33203 0.007812-0.082031-0.015625-0.17188 0.039062-0.24609z"/>
  <path d="m23.898 22.129c0.007812-2.2617 0.33203-4.3047 1.0898-6.2695 0.57031-1.4844 1.3555-2.8438 2.4453-4.0117 1.1758-1.2617 2.5742-2.168 4.2578-2.5938 1.6836-0.42969 3.3398-0.30469 4.9688 0.28125 1.4336 0.51953 2.6836 1.3398 3.7969 2.375 1.7734 1.6484 3.043 3.6406 3.9492 5.875 0.57422 1.4219 0.97266 2.8867 1.1953 4.4023 0.12891 0.85938 0.20313 1.7227 0.21875 2.5938 0.019532 1.0977-0.050781 2.1875-0.23047 3.2695-0.375 2.2617-1.1445 4.3672-2.5117 6.2305-0.85156 1.1562-1.8828 2.1094-3.1523 2.7969-1.418 0.76953-2.9336 1.0898-4.5391 0.96484-1.4492-0.10938-2.7891-0.58594-4.0352-1.3242-1.6289-0.96484-2.9453-2.2656-4.043-3.793-1.3008-1.8164-2.1953-3.8242-2.7617-5.9844-0.30859-1.1797-0.50781-2.3828-0.59766-3.6016-0.035157-0.45703-0.066407-0.91797-0.050781-1.2109z"/>
  <path d="m94.996 41.738v0.26172c-0.10156 2.1836-0.68359 4.2344-1.6289 6.1953-0.74219 1.5352-1.6875 2.9336-2.8594 4.1758-1.5039 1.5938-3.25 2.8359-5.3242 3.582-1.2422 0.44531-2.5234 0.66797-3.8477 0.59375-1.9531-0.10938-3.6562-0.81641-5.0938-2.1484-1.1836-1.1016-1.9648-2.4531-2.457-3.9805-0.44141-1.3672-0.62109-2.7734-0.57812-4.207 0.097657-3.1523 1.0938-6.0195 2.8203-8.6406 0.58203-0.88672 1.2539-1.707 2.0039-2.457 1.543-1.5352 3.3086-2.7188 5.3945-3.3906 1.1875-0.37891 2.4023-0.55078 3.6445-0.45312 1.8984 0.14844 3.5586 0.86719 4.9453 2.1758 1.2539 1.1836 2.0469 2.6445 2.5234 4.2852 0.26563 0.90625 0.41797 1.832 0.44922 2.7773v0.26563c0 0.32031 0 0.64062 0.007813 0.96484z"/>
 </g>
</svg>
